<svg xmlns="http://www.w3.org/2000/svg" viewBox="0 0 900 1100"><defs><radialGradient id="g"><stop stop-color="#ffe3eb"/><stop offset=".55" stop-color="#ef9dbb"/><stop offset="1" stop-color="#a1496b"/></radialGradient><filter id="b"><feGaussianBlur stdDeviation="10"/></filter></defs><rect width="900" height="1100" fill="#020204"/><path d="M70 70C240 240 350 330 465 520C590 730 690 820 860 1020" fill="none" stroke="#23151b" stroke-width="34"/><path d="M90 85C250 245 360 345 480 535C600 730 705 840 840 1005" fill="none" stroke="#734657" stroke-width="6"/><g opacity=".25" filter="url(#b)" fill="#f0a0bd"><circle cx="250" cy="260" r="60"/><circle cx="460" cy="500" r="70"/><circle cx="690" cy="820" r="62"/></g><g fill="url(#g)"><g transform="translate(255 265) scale(.92)"><circle r="20"/><ellipse cy="-34" ry="29" rx="18"/><ellipse cy="34" ry="29" rx="18"/><ellipse cx="34" rx="29" ry="18" transform="rotate(90 34)"/><ellipse cx="-34" rx="29" ry="18" transform="rotate(90 -34)"/><circle r="8" fill="#fff1f5"/></g><g transform="translate(465 505) scale(1.14)"><circle r="20"/><ellipse cy="-34" ry="29" rx="18"/><ellipse cy="34" ry="29" rx="18"/><ellipse cx="34" rx="29" ry="18" transform="rotate(90 34)"/><ellipse cx="-34" rx="29" ry="18" transform="rotate(90 -34)"/><circle r="8" fill="#fff1f5"/></g><g transform="translate(690 815) scale(.88)"><circle r="20"/><ellipse cy="-34" ry="29" rx="18"/><ellipse cy="34" ry="29" rx="18"/><ellipse cx="34" rx="29" ry="18" transform="rotate(90 34)"/><ellipse cx="-34" rx="29" ry="18" transform="rotate(90 -34)"/><circle r="8" fill="#fff1f5"/></g><g transform="translate(805 940) scale(.55)"><circle r="20"/><ellipse cy="-34" ry="29" rx="18"/><ellipse cy="34" ry="29" rx="18"/><ellipse cx="34" rx="29" ry="18" transform="rotate(90 34)"/><ellipse cx="-34" rx="29" ry="18" transform="rotate(90 -34)"/><circle r="8" fill="#fff1f5"/></g></g></svg>