<svg xmlns="http://www.w3.org/2000/svg" viewBox="0 0 900 1100"><defs><radialGradient id="g"><stop stop-color="#ffd9e6"/><stop offset=".55" stop-color="#ee98b8"/><stop offset="1" stop-color="#984264"/></radialGradient><filter id="b"><feGaussianBlur stdDeviation="11"/></filter></defs><rect width="900" height="1100" fill="#030305"/><path d="M870 1030C690 860 700 700 560 560C410 410 380 230 80 115" fill="none" stroke="#21131a" stroke-width="32"/><path d="M850 1015C670 845 690 715 545 575C400 435 375 255 105 135" fill="none" stroke="#6c4354" stroke-width="6"/><g opacity=".22" filter="url(#b)" fill="#f0a0bd"><circle cx="600" cy="610" r="65"/><circle cx="420" cy="420" r="70"/><circle cx="220" cy="250" r="60"/></g><g fill="url(#g)"><g transform="translate(590 590)"><circle r="20"/><ellipse cy="-34" ry="29" rx="18"/><ellipse cy="34" ry="29" rx="18"/><ellipse cx="34" rx="29" ry="18" transform="rotate(90 34)"/><ellipse cx="-34" rx="29" ry="18" transform="rotate(90 -34)"/><circle r="8" fill="#fff1f5"/></g><g transform="translate(415 405) scale(1.12)"><circle r="20"/><ellipse cy="-34" ry="29" rx="18"/><ellipse cy="34" ry="29" rx="18"/><ellipse cx="34" rx="29" ry="18" transform="rotate(90 34)"/><ellipse cx="-34" rx="29" ry="18" transform="rotate(90 -34)"/><circle r="8" fill="#fff1f5"/></g><g transform="translate(215 255) scale(.9)"><circle r="20"/><ellipse cy="-34" ry="29" rx="18"/><ellipse cy="34" ry="29" rx="18"/><ellipse cx="34" rx="29" ry="18" transform="rotate(90 34)"/><ellipse cx="-34" rx="29" ry="18" transform="rotate(90 -34)"/><circle r="8" fill="#fff1f5"/></g><g transform="translate(115 170) scale(.55)"><circle r="20"/><ellipse cy="-34" ry="29" rx="18"/><ellipse cy="34" ry="29" rx="18"/><ellipse cx="34" rx="29" ry="18" transform="rotate(90 34)"/><ellipse cx="-34" rx="29" ry="18" transform="rotate(90 -34)"/><circle r="8" fill="#fff1f5"/></g></g></svg>